<svg id="Capa_1" enable-background="new 0 0 512 512" height="512" viewBox="0 0 512 512" width="512" xmlns="http://www.w3.org/2000/svg"><g id="Cloud_1_"><g><path d="m421 406h-330c-24.05 0-46.794-9.327-64.042-26.264-17.384-17.069-26.958-39.705-26.958-63.736s9.574-46.667 26.958-63.736c13.614-13.368 30.652-21.995 49.054-25.038-.008-.406-.012-.815-.012-1.226 0-66.168 53.832-120 120-120 24.538 0 48.119 7.387 68.194 21.363 14.132 9.838 25.865 22.443 34.587 37.043 14.079-8.733 30.318-13.406 47.219-13.406 44.886 0 82.202 33.026 88.921 76.056 18.811 2.88 36.244 11.581 50.122 25.208 17.383 17.069 26.957 39.704 26.957 63.736s-9.574 46.667-26.957 63.736c-17.249 16.937-39.993 26.264-64.043 26.264zm-330-150c-33.636 0-61 26.916-61 60s27.364 60 61 60h330c33.636 0 61-26.916 61-60s-27.364-60-61-60h-15v-15c0-33.084-26.916-60-60-60-15.766 0-30.68 6.12-41.995 17.233l-16.146 15.858-8.315-21.049c-13.689-34.651-46.482-57.042-83.544-57.042-49.626 0-90 40.374-90 90 0 3.544.556 7.349 1.144 11.378l2.687 18.622z"/></g></g></svg>

<!-- Github SVG -->
<svg class="svg-icon" width="24" height="24" viewBox="0 0 24 24">
    <title>GitHub icon</title>
    <path
        d="M12 .297c-6.63 0-12 5.373-12 12 0 5.303 3.438 9.8 8.205 11.385.6.113.82-.258.82-.577 0-.285-.01-1.04-.015-2.04-3.338.724-4.042-1.61-4.042-1.61C4.422 18.07 3.633 17.7 3.633 17.7c-1.087-.744.084-.729.084-.729 1.205.084 1.838 1.236 1.838 1.236 1.07 1.835 2.809 1.305 3.495.998.108-.776.417-1.305.76-1.605-2.665-.3-5.466-1.332-5.466-5.93 0-1.31.465-2.38 1.235-3.22-.135-.303-.54-1.523.105-3.176 0 0 1.005-.322 3.3 1.23.96-.267 1.98-.399 3-.405 1.02.006 2.04.138 3 .405 2.28-1.552 3.285-1.23 3.285-1.23.645 1.653.24 2.873.12 3.176.765.84 1.23 1.91 1.23 3.22 0 4.61-2.805 5.625-5.475 5.92.42.36.81 1.096.81 2.22 0 1.606-.015 2.896-.015 3.286 0 .315.21.69.825.57C20.565 22.092 24 17.592 24 12.297c0-6.627-5.373-12-12-12"
    ></path>
</svg>

<!-- Linked in svg -->
<svg class="svg-icon" width="24" height="24" viewBox="0 0 24 24">
          <title>GitHub icon</title>
          <path
            d="M22.23 0H1.77C.8 0 0 .77 0 1.72v20.56C0 23.23.8 24 1.77 24h20.46c.98 0 1.77-.77 1.77-1.72V1.72C24 .77 23.2 0 22.23 0zM7.27 20.1H3.65V9.24h3.62V20.1zM5.47 7.76h-.03c-1.22 0-2-.83-2-1.87 0-1.06.8-1.87 2.05-1.87 1.24 0 2 .8 2.02 1.87 0 1.04-.78 1.87-2.05 1.87zM20.34 20.1h-3.63v-5.8c0-1.45-.52-2.45-1.83-2.45-1 0-1.6.67-1.87 1.32-.1.23-.11.55-.11.88v6.05H9.28s.05-9.82 0-10.84h3.63v1.54a3.6 3.6 0 0 1 3.26-1.8c2.39 0 4.18 1.56 4.18 4.89v6.21z"
          ></path>
        </svg>