<svg width="22" height="16" viewBox="0 0 22 16" fill="none" xmlns="http://www.w3.org/2000/svg">
<path d="M21.54 0.926666L11.8333 10.5933C11.5835 10.8417 11.2455 10.9811 10.8933 10.9811C10.541 10.9811 10.2031 10.8417 9.95329 10.5933L0.333288 1C0.303714 1.10869 0.288034 1.2207 0.286621 1.33333V14.6667C0.286621 15.0203 0.427097 15.3594 0.677145 15.6095C0.927194 15.8595 1.26633 16 1.61995 16H20.2866C20.6402 16 20.9794 15.8595 21.2294 15.6095C21.4795 15.3594 21.62 15.0203 21.62 14.6667V1.33333C21.6146 1.19444 21.5877 1.05722 21.54 0.926666V0.926666ZM2.53329 14.6667H1.60662V13.7133L6.45329 8.90667L7.39329 9.84667L2.53329 14.6667ZM20.2733 14.6667H19.34L14.48 9.84667L15.42 8.90667L20.2666 13.7133L20.2733 14.6667Z" fill="black"/>
</svg>
